<svg xmlns="http://www.w3.org/2000/svg" enable-background="new 0 0 24 24" viewBox="0 0 24 24"><path fill="#1873CC" d="M24,6H0v12h12.13L24,6L24,6z M10.014,14.683c-0.369,0.123-0.787,0.191-1.229,0.191c-0.456,0-0.886-0.072-1.263-0.202l-0.359,0.929l-2,0.006l0.09-0.467l-0.087,0.074c-0.535,0.434-1.208,0.636-2.037,0.651l-0.213,0.002H2.864c-0.922,0-1.784-0.25-2.53-0.682l0.73-1.463c0.789,0.472,1.285,0.578,1.955,0.563c0.348-0.006,0.599-0.07,0.762-0.241c0.093-0.097,0.15-0.228,0.156-0.372v-0.001c0.007-0.38-0.53-0.559-1.186-0.765c-0.531-0.165-1.135-0.393-1.605-0.742c-0.559-0.415-0.825-0.934-0.812-1.668C0.338,9.954,0.553,9.463,0.9,9.105c0.519-0.543,1.356-0.873,2.362-0.873h0.001H3.27C4.132,8.232,5.184,8.48,5.945,8.872l-0.82,1.446C4.29,9.908,3.87,9.87,3.394,9.844c-0.707-0.038-1.063,0.218-1.068,0.493c-0.007,0.336,0.669,0.641,1.305,0.848c0.964,0.308,2.191,0.723,2.377,1.92L7.77,8.398h2.047l2.063,5.636l-0.006-5.635h2.37c2.257,0,3.317,0.773,3.317,2.546c0,1.592-1.089,2.541-2.935,2.541h-0.763l-0.011,2.117l-3.588-0.003L10.014,14.683L10.014,14.683z"/><path fill="#1873CC" d="M15.63 10.87c0-.717-.554-.95-1.248-.95h-.521v1.925h.521C15.076 11.845 15.629 11.612 15.63 10.87zM8.773 10.696l-.747 2.386c.223.087.481.135.757.135.268 0 .52-.047.742-.127l-.736-2.395L8.773 10.696 8.773 10.696z"/><path fill="#DEDEDE" d="M17.367,12h-5.49l0.002,2.034L11.135,12H9.19l0.335,1.09c-0.223,0.08-0.475,0.127-0.742,0.127c-0.276,0-0.534-0.048-0.757-0.135L8.365,12H6.422l-0.414,1.106C5.933,12.626,5.691,12.272,5.366,12h-4.42c0.062,0.057,0.128,0.111,0.2,0.164c0.471,0.35,1.074,0.577,1.605,0.742c0.656,0.206,1.193,0.385,1.186,0.765v0.001c-0.006,0.144-0.063,0.275-0.156,0.372c-0.163,0.171-0.414,0.235-0.762,0.241c-0.039,0.001-0.077,0.001-0.115,0.001c-0.614,0-1.097-0.12-1.84-0.565l-0.73,1.463c0.746,0.432,1.608,0.682,2.53,0.682h0.052l0.213-0.002c0.829-0.015,1.502-0.217,2.037-0.651l0.087-0.074l-0.09,0.467l2-0.006l0.359-0.929c0.377,0.13,0.806,0.202,1.263,0.202c0.442,0,0.86-0.068,1.229-0.191l0.25,0.918l3.588,0.003l0.011-2.117h0.763C16.017,13.487,16.978,12.947,17.367,12L17.367,12z"/><path fill="#1564B2" d="M6.422,12H5.366c0.325,0.272,0.567,0.626,0.641,1.106L6.422,12L6.422,12z M11.877,12h-0.742l0.745,2.034L11.877,12L11.877,12z M18.065,12h-0.698c-0.389,0.948-1.351,1.487-2.742,1.487h-0.763l-0.011,2.117l-3.588-0.003l-0.25-0.918c-0.369,0.123-0.787,0.191-1.229,0.191c-0.456,0-0.886-0.072-1.263-0.202l-0.359,0.929l-2,0.006l0.09-0.467l-0.087,0.074c-0.535,0.434-1.208,0.636-2.037,0.651l-0.213,0.002H2.864c-0.922,0-1.784-0.25-2.53-0.682l0.73-1.463c0.743,0.444,1.227,0.565,1.84,0.565c0.038,0,0.076,0,0.115-0.001c0.348-0.006,0.599-0.07,0.762-0.241c0.093-0.097,0.15-0.228,0.156-0.372v-0.001c0.007-0.38-0.53-0.559-1.186-0.765c-0.531-0.165-1.135-0.393-1.605-0.742c-0.071-0.053-0.138-0.108-0.2-0.164H0v6h12.13L18.065,12L18.065,12z"/><path fill="#1564B2" d="M9.19,12H8.365l-0.339,1.082c0.223,0.087,0.481,0.135,0.757,0.135c0.268,0,0.52-0.047,0.742-0.127L9.19,12L9.19,12z"/></svg>